<svg width="253" height="268" viewBox="0 0 253 268" fill="none" xmlns="http://www.w3.org/2000/svg">
<path d="M26.3547 255.853C26.8691 255.853 27.2861 255.436 27.2861 254.922C27.2861 254.407 26.8691 253.99 26.3547 253.99C25.8403 253.99 25.4233 254.407 25.4233 254.922C25.4233 255.436 25.8403 255.853 26.3547 255.853Z" fill="white"/>
<path d="M41.1005 249.582C42.0518 249.582 42.823 248.811 42.823 247.859C42.823 246.908 42.0518 246.137 41.1005 246.137C40.1492 246.137 39.3779 246.908 39.3779 247.859C39.3779 248.811 40.1492 249.582 41.1005 249.582Z" fill="white"/>
<path d="M61.8743 267.727C62.9504 267.727 63.8229 266.854 63.8229 265.778C63.8229 264.702 62.9504 263.83 61.8743 263.83C60.7981 263.83 59.9258 264.702 59.9258 265.778C59.9258 266.854 60.7981 267.727 61.8743 267.727Z" fill="white"/>
<path d="M68.4912 253.084C69.3849 253.084 70.1094 252.36 70.1094 251.466C70.1094 250.572 69.3849 249.848 68.4912 249.848C67.5975 249.848 66.873 250.572 66.873 251.466C66.873 252.36 67.5975 253.084 68.4912 253.084Z" fill="white"/>
<path d="M68.4656 238.906C69.4457 238.906 70.2402 238.112 70.2402 237.132C70.2402 236.151 69.4457 235.357 68.4656 235.357C67.4855 235.357 66.6909 236.151 66.6909 237.132C66.6909 238.112 67.4855 238.906 68.4656 238.906Z" fill="white"/>
<path d="M53.1836 243.285C54.1781 243.285 54.9843 242.479 54.9843 241.485C54.9843 240.49 54.1781 239.684 53.1836 239.684C52.1891 239.684 51.3828 240.49 51.3828 241.485C51.3828 242.479 52.1891 243.285 53.1836 243.285Z" fill="white"/>
<path d="M58.1726 231.993C59.0087 231.993 59.6864 231.315 59.6864 230.479C59.6864 229.643 59.0087 228.965 58.1726 228.965C57.3365 228.965 56.6587 229.643 56.6587 230.479C56.6587 231.315 57.3365 231.993 58.1726 231.993Z" fill="white"/>
<path d="M67.5383 223.617C68.3696 223.617 69.0435 222.944 69.0435 222.112C69.0435 221.281 68.3696 220.607 67.5383 220.607C66.7071 220.607 66.0332 221.281 66.0332 222.112C66.0332 222.944 66.7071 223.617 67.5383 223.617Z" fill="white"/>
<path d="M69.2383 209.321C70.0792 209.321 70.7609 208.64 70.7609 207.799C70.7609 206.958 70.0792 206.276 69.2383 206.276C68.3974 206.276 67.7158 206.958 67.7158 207.799C67.7158 208.64 68.3974 209.321 69.2383 209.321Z" fill="white"/>
<path d="M74.3958 196.212C75.2318 196.212 75.9095 195.535 75.9095 194.699C75.9095 193.862 75.2318 193.185 74.3958 193.185C73.5597 193.185 72.8818 193.862 72.8818 194.699C72.8818 195.535 73.5597 196.212 74.3958 196.212Z" fill="white"/>
<path d="M79.533 183.274C80.2394 183.274 80.8121 182.701 80.8121 181.995C80.8121 181.288 80.2394 180.715 79.533 180.715C78.8265 180.715 78.2539 181.288 78.2539 181.995C78.2539 182.701 78.8265 183.274 79.533 183.274Z" fill="white"/>
<path d="M84.9492 169.85C85.7229 169.85 86.3501 169.223 86.3501 168.45C86.3501 167.676 85.7229 167.049 84.9492 167.049C84.1756 167.049 83.5483 167.676 83.5483 168.45C83.5483 169.223 84.1756 169.85 84.9492 169.85Z" fill="white"/>
<path d="M95.2385 173.395C96.0458 173.395 96.7002 172.741 96.7002 171.933C96.7002 171.126 96.0458 170.472 95.2385 170.472C94.4313 170.472 93.7769 171.126 93.7769 171.933C93.7769 172.741 94.4313 173.395 95.2385 173.395Z" fill="white"/>
<path d="M92.4021 159.924C93.4014 159.924 94.2115 159.114 94.2115 158.115C94.2115 157.115 93.4014 156.305 92.4021 156.305C91.4028 156.305 90.5928 157.115 90.5928 158.115C90.5928 159.114 91.4028 159.924 92.4021 159.924Z" fill="white"/>
<path d="M87.8976 147.667C88.7145 147.667 89.3767 147.005 89.3767 146.188C89.3767 145.371 88.7145 144.709 87.8976 144.709C87.0807 144.709 86.4185 145.371 86.4185 146.188C86.4185 147.005 87.0807 147.667 87.8976 147.667Z" fill="white"/>
<path d="M92.4448 136.615C93.3145 136.615 94.0195 135.91 94.0195 135.041C94.0195 134.171 93.3145 133.466 92.4448 133.466C91.5751 133.466 90.8701 134.171 90.8701 135.041C90.8701 135.91 91.5751 136.615 92.4448 136.615Z" fill="white"/>
<path d="M80.8831 131.913C81.5943 131.913 82.1708 131.336 82.1708 130.625C82.1708 129.914 81.5943 129.337 80.8831 129.337C80.1718 129.337 79.5952 129.914 79.5952 130.625C79.5952 131.336 80.1718 131.913 80.8831 131.913Z" fill="white"/>
<path d="M75.4034 142.047C76.1483 142.047 76.7521 141.444 76.7521 140.699C76.7521 139.954 76.1483 139.35 75.4034 139.35C74.6586 139.35 74.0547 139.954 74.0547 140.699C74.0547 141.444 74.6586 142.047 75.4034 142.047Z" fill="white"/>
<path d="M68.0078 129.716C68.7047 129.716 69.2695 129.152 69.2695 128.455C69.2695 127.758 68.7047 127.193 68.0078 127.193C67.311 127.193 66.7461 127.758 66.7461 128.455C66.7461 129.152 67.311 129.716 68.0078 129.716Z" fill="white"/>
<path d="M56.7815 117.878C57.4687 117.878 58.0259 117.321 58.0259 116.633C58.0259 115.946 57.4687 115.389 56.7815 115.389C56.0943 115.389 55.5371 115.946 55.5371 116.633C55.5371 117.321 56.0943 117.878 56.7815 117.878Z" fill="white"/>
<path d="M61.4631 104.332C62.1504 104.332 62.7075 103.775 62.7075 103.087C62.7075 102.4 62.1504 101.843 61.4631 101.843C60.7759 101.843 60.2188 102.4 60.2188 103.087C60.2188 103.775 60.7759 104.332 61.4631 104.332Z" fill="white"/>
<path d="M48.8606 105.793C49.6439 105.793 50.2788 105.158 50.2788 104.374C50.2788 103.591 49.6439 102.956 48.8606 102.956C48.0773 102.956 47.4424 103.591 47.4424 104.374C47.4424 105.158 48.0773 105.793 48.8606 105.793Z" fill="white"/>
<path d="M50.109 94.7072C50.9739 94.7072 51.675 94.0061 51.675 93.1412C51.675 92.2763 50.9739 91.5752 50.109 91.5752C49.2441 91.5752 48.543 92.2763 48.543 93.1412C48.543 94.0061 49.2441 94.7072 50.109 94.7072Z" fill="white"/>
<path d="M37.3035 90.9691C37.9187 90.9691 38.4174 90.4704 38.4174 89.8552C38.4174 89.2399 37.9187 88.7412 37.3035 88.7412C36.6882 88.7412 36.1895 89.2399 36.1895 89.8552C36.1895 90.4704 36.6882 90.9691 37.3035 90.9691Z" fill="white"/>
<path d="M26.8655 70.0388C27.5239 70.0388 28.0577 69.505 28.0577 68.8466C28.0577 68.1882 27.5239 67.6544 26.8655 67.6544C26.207 67.6544 25.6733 68.1882 25.6733 68.8466C25.6733 69.505 26.207 70.0388 26.8655 70.0388Z" fill="white"/>
<path d="M19.7128 58.5173C20.4144 58.5173 20.9833 57.9485 20.9833 57.2469C20.9833 56.5452 20.4144 55.9764 19.7128 55.9764C19.0111 55.9764 18.4424 56.5452 18.4424 57.2469C18.4424 57.9485 19.0111 58.5173 19.7128 58.5173Z" fill="white"/>
<path d="M22.3269 46.0643C23.1102 46.0643 23.7451 45.4293 23.7451 44.6461C23.7451 43.8628 23.1102 43.2278 22.3269 43.2278C21.5436 43.2278 20.9087 43.8628 20.9087 44.6461C20.9087 45.4293 21.5436 46.0643 22.3269 46.0643Z" fill="white"/>
<path d="M6.96497 49.8585C7.43615 49.8585 7.81812 49.4766 7.81812 49.0054C7.81812 48.5342 7.43615 48.1522 6.96497 48.1522C6.49379 48.1522 6.11182 48.5342 6.11182 49.0054C6.11182 49.4766 6.49379 49.8585 6.96497 49.8585Z" fill="white"/>
<path d="M12.3989 35.4614C13.1246 35.4614 13.7128 34.8732 13.7128 34.1475C13.7128 33.4219 13.1246 32.8336 12.3989 32.8336C11.6733 32.8336 11.085 33.4219 11.085 34.1475C11.085 34.8732 11.6733 35.4614 12.3989 35.4614Z" fill="white"/>
<path d="M1.32874 25.5368C1.82392 25.5368 2.22534 25.1354 2.22534 24.6402C2.22534 24.145 1.82392 23.7436 1.32874 23.7436C0.833549 23.7436 0.432129 24.145 0.432129 24.6402C0.432129 25.1354 0.833549 25.5368 1.32874 25.5368Z" fill="white"/>
<path d="M1.86707 3.24561C2.59271 3.24561 3.18103 2.65735 3.18103 1.9317C3.18103 1.20605 2.59271 0.617798 1.86707 0.617798C1.14142 0.617798 0.553223 1.20605 0.553223 1.9317C0.553223 2.65735 1.14142 3.24561 1.86707 3.24561Z" fill="white"/>
<path d="M12.2562 18.4047C13.0635 18.4047 13.7179 17.7503 13.7179 16.943C13.7179 16.1357 13.0635 15.4813 12.2562 15.4813C11.449 15.4813 10.7944 16.1357 10.7944 16.943C10.7944 17.7503 11.449 18.4047 12.2562 18.4047Z" fill="white"/>
<path d="M23.6523 30.7272C24.45 30.7272 25.0967 30.0805 25.0967 29.2829C25.0967 28.4852 24.45 27.8386 23.6523 27.8386C22.8547 27.8386 22.208 28.4852 22.208 29.2829C22.208 30.0805 22.8547 30.7272 23.6523 30.7272Z" fill="white"/>
<path d="M34.6858 41.5476C35.5219 41.5476 36.1996 40.8698 36.1996 40.0338C36.1996 39.1977 35.5219 38.5199 34.6858 38.5199C33.8497 38.5199 33.1719 39.1977 33.1719 40.0338C33.1719 40.8698 33.8497 41.5476 34.6858 41.5476Z" fill="white"/>
<path d="M34.1122 56.9042C34.8618 56.9042 35.4696 56.2965 35.4696 55.5469C35.4696 54.7972 34.8618 54.1895 34.1122 54.1895C33.3625 54.1895 32.7549 54.7972 32.7549 55.5469C32.7549 56.2965 33.3625 56.9042 34.1122 56.9042Z" fill="white"/>
<path d="M45.8386 50.6867C46.6699 50.6867 47.3438 50.0128 47.3438 49.1815C47.3438 48.3503 46.6699 47.6764 45.8386 47.6764C45.0073 47.6764 44.3335 48.3503 44.3335 49.1815C44.3335 50.0128 45.0073 50.6867 45.8386 50.6867Z" fill="white"/>
<path d="M57.8153 58.4176C58.6658 58.4176 59.3552 57.7282 59.3552 56.8777C59.3552 56.0272 58.6658 55.3378 57.8153 55.3378C56.9648 55.3378 56.2754 56.0272 56.2754 56.8777C56.2754 57.7282 56.9648 58.4176 57.8153 58.4176Z" fill="white"/>
<path d="M45.8729 65.1262C46.6754 65.1262 47.3259 64.4757 47.3259 63.6732C47.3259 62.8707 46.6754 62.2202 45.8729 62.2202C45.0705 62.2202 44.4199 62.8707 44.4199 63.6732C44.4199 64.4757 45.0705 65.1262 45.8729 65.1262Z" fill="white"/>
<path d="M37.0305 75.1581C37.6649 75.1581 38.1792 74.6439 38.1792 74.0094C38.1792 73.375 37.6649 72.8607 37.0305 72.8607C36.3961 72.8607 35.8818 73.375 35.8818 74.0094C35.8818 74.6439 36.3961 75.1581 37.0305 75.1581Z" fill="white"/>
<path d="M47.9019 81.1317C48.6227 81.1317 49.207 80.5474 49.207 79.8265C49.207 79.1057 48.6227 78.5213 47.9019 78.5213C47.181 78.5213 46.5967 79.1057 46.5967 79.8265C46.5967 80.5474 47.181 81.1317 47.9019 81.1317Z" fill="white"/>
<path d="M57.5742 73.0241C58.3191 73.0241 58.9229 72.4203 58.9229 71.6754C58.9229 70.9306 58.3191 70.3268 57.5742 70.3268C56.8294 70.3268 56.2256 70.9306 56.2256 71.6754C56.2256 72.4203 56.8294 73.0241 57.5742 73.0241Z" fill="white"/>
<path d="M68.2635 66.1812C69.1909 66.1812 69.9425 65.4295 69.9425 64.5022C69.9425 63.5749 69.1909 62.8232 68.2635 62.8232C67.3362 62.8232 66.5845 63.5749 66.5845 64.5022C66.5845 65.4295 67.3362 66.1812 68.2635 66.1812Z" fill="white"/>
<path d="M79.3027 72.3567C80.2204 72.3567 80.9644 71.6127 80.9644 70.695C80.9644 69.7773 80.2204 69.0334 79.3027 69.0334C78.385 69.0334 77.6411 69.7773 77.6411 70.695C77.6411 71.6127 78.385 72.3567 79.3027 72.3567Z" fill="white"/>
<path d="M69.4225 80.2151C70.1625 80.2151 70.7625 79.6152 70.7625 78.8751C70.7625 78.1351 70.1625 77.5352 69.4225 77.5352C68.6824 77.5352 68.0825 78.1351 68.0825 78.8751C68.0825 79.6152 68.6824 80.2151 69.4225 80.2151Z" fill="white"/>
<path d="M59.8534 88.5318C60.5598 88.5318 61.1324 87.9591 61.1324 87.2526C61.1324 86.5462 60.5598 85.9735 59.8534 85.9735C59.147 85.9735 58.5742 86.5462 58.5742 87.2526C58.5742 87.9591 59.147 88.5318 59.8534 88.5318Z" fill="white"/>
<path d="M71.0842 95.6275C71.9203 95.6275 72.598 94.9497 72.598 94.1136C72.598 93.2776 71.9203 92.5998 71.0842 92.5998C70.2482 92.5998 69.5703 93.2776 69.5703 94.1136C69.5703 94.9497 70.2482 95.6275 71.0842 95.6275Z" fill="white"/>
<path d="M74.8156 107.319C75.5796 107.319 76.199 106.7 76.199 105.936C76.199 105.172 75.5796 104.552 74.8156 104.552C74.0515 104.552 73.4321 105.172 73.4321 105.936C73.4321 106.7 74.0515 107.319 74.8156 107.319Z" fill="white"/>
<path d="M67.588 117.625C68.4481 117.625 69.1454 116.928 69.1454 116.068C69.1454 115.208 68.4481 114.511 67.588 114.511C66.7279 114.511 66.0308 115.208 66.0308 116.068C66.0308 116.928 66.7279 117.625 67.588 117.625Z" fill="white"/>
<path d="M78.9844 119.925C79.8781 119.925 80.6025 119.2 80.6025 118.307C80.6025 117.413 79.8781 116.688 78.9844 116.688C78.0907 116.688 77.3662 117.413 77.3662 118.307C77.3662 119.2 78.0907 119.925 78.9844 119.925Z" fill="white"/>
<path d="M91.1409 122.746C91.8521 122.746 92.4286 122.17 92.4286 121.458C92.4286 120.747 91.8521 120.171 91.1409 120.171C90.4296 120.171 89.853 120.747 89.853 121.458C89.853 122.17 90.4296 122.746 91.1409 122.746Z" fill="white"/>
<path d="M87.8022 110.785C88.6479 110.785 89.3335 110.099 89.3335 109.254C89.3335 108.408 88.6479 107.723 87.8022 107.723C86.9566 107.723 86.271 108.408 86.271 109.254C86.271 110.099 86.9566 110.785 87.8022 110.785Z" fill="white"/>
<path d="M85.0991 98.2616C85.796 98.2616 86.3608 97.6967 86.3608 96.9998C86.3608 96.303 85.796 95.7381 85.0991 95.7381C84.4023 95.7381 83.8374 96.303 83.8374 96.9998C83.8374 97.6967 84.4023 98.2616 85.0991 98.2616Z" fill="white"/>
<path d="M81.3678 86.0512C82.0886 86.0512 82.673 85.4668 82.673 84.746C82.673 84.0252 82.0886 83.4408 81.3678 83.4408C80.647 83.4408 80.0625 84.0252 80.0625 84.746C80.0625 85.4668 80.647 86.0512 81.3678 86.0512Z" fill="white"/>
<path d="M90.1669 78.351C91.0942 78.351 91.8458 77.5992 91.8458 76.6719C91.8458 75.7446 91.0942 74.9929 90.1669 74.9929C89.2396 74.9929 88.4878 75.7446 88.4878 76.6719C88.4878 77.5992 89.2396 78.351 90.1669 78.351Z" fill="white"/>
<path d="M97.5046 87.408C98.3119 87.408 98.9663 86.7536 98.9663 85.9463C98.9663 85.1391 98.3119 84.4846 97.5046 84.4846C96.6974 84.4846 96.043 85.1391 96.043 85.9463C96.043 86.7536 96.6974 87.408 97.5046 87.408Z" fill="white"/>
<path d="M107.721 78.4001C108.202 78.4001 108.592 78.0103 108.592 77.5295C108.592 77.0488 108.202 76.659 107.721 76.659C107.24 76.659 106.851 77.0488 106.851 77.5295C106.851 78.0103 107.24 78.4001 107.721 78.4001Z" fill="white"/>
<path d="M109.282 91.955C110.224 91.955 110.987 91.1916 110.987 90.2499C110.987 89.3082 110.224 88.5448 109.282 88.5448C108.341 88.5448 107.577 89.3082 107.577 90.2499C107.577 91.1916 108.341 91.955 109.282 91.955Z" fill="white"/>
<path d="M120.259 97.3164C120.917 97.3164 121.451 96.7826 121.451 96.1242C121.451 95.4658 120.917 94.932 120.259 94.932C119.6 94.932 119.066 95.4658 119.066 96.1242C119.066 96.7826 119.6 97.3164 120.259 97.3164Z" fill="white"/>
<path d="M123.167 109.389C124.109 109.389 124.873 108.625 124.873 107.684C124.873 106.742 124.109 105.978 123.167 105.978C122.226 105.978 121.462 106.742 121.462 107.684C121.462 108.625 122.226 109.389 123.167 109.389Z" fill="white"/>
<path d="M113.088 117.561C113.862 117.561 114.489 116.934 114.489 116.16C114.489 115.387 113.862 114.76 113.088 114.76C112.315 114.76 111.688 115.387 111.688 116.16C111.688 116.934 112.315 117.561 113.088 117.561Z" fill="white"/>
<path d="M110.285 105.244C111.106 105.244 111.772 104.578 111.772 103.756C111.772 102.934 111.106 102.268 110.285 102.268C109.463 102.268 108.797 102.934 108.797 103.756C108.797 104.578 109.463 105.244 110.285 105.244Z" fill="white"/>
<path d="M98.1342 100.544C98.9366 100.544 99.5872 99.894 99.5872 99.0915C99.5872 98.289 98.9366 97.6385 98.1342 97.6385C97.3317 97.6385 96.6812 98.289 96.6812 99.0915C96.6812 99.894 97.3317 100.544 98.1342 100.544Z" fill="white"/>
<path d="M100.286 113.286C101.065 113.286 101.696 112.655 101.696 111.877C101.696 111.098 101.065 110.467 100.286 110.467C99.5079 110.467 98.877 111.098 98.877 111.877C98.877 112.655 99.5079 113.286 100.286 113.286Z" fill="white"/>
<path d="M102.788 125.196C103.648 125.196 104.346 124.498 104.346 123.638C104.346 122.778 103.648 122.081 102.788 122.081C101.928 122.081 101.231 122.778 101.231 123.638C101.231 124.498 101.928 125.196 102.788 125.196Z" fill="white"/>
<path d="M113.531 130.732C114.444 130.732 115.184 129.992 115.184 129.079C115.184 128.166 114.444 127.426 113.531 127.426C112.618 127.426 111.878 128.166 111.878 129.079C111.878 129.992 112.618 130.732 113.531 130.732Z" fill="white"/>
<path d="M113.441 143.458C114.388 143.458 115.155 142.691 115.155 141.744C115.155 140.798 114.388 140.03 113.441 140.03C112.495 140.03 111.728 140.798 111.728 141.744C111.728 142.691 112.495 143.458 113.441 143.458Z" fill="white"/>
<path d="M103.517 137.043C104.333 137.043 104.996 136.381 104.996 135.564C104.996 134.747 104.333 134.085 103.517 134.085C102.7 134.085 102.038 134.747 102.038 135.564C102.038 136.381 102.7 137.043 103.517 137.043Z" fill="white"/>
<path d="M101.618 149.387C102.435 149.387 103.097 148.724 103.097 147.908C103.097 147.091 102.435 146.428 101.618 146.428C100.801 146.428 100.139 147.091 100.139 147.908C100.139 148.724 100.801 149.387 101.618 149.387Z" fill="white"/>
<path d="M103.693 162.587C104.577 162.587 105.293 161.87 105.293 160.986C105.293 160.102 104.577 159.385 103.693 159.385C102.809 159.385 102.092 160.102 102.092 160.986C102.092 161.87 102.809 162.587 103.693 162.587Z" fill="white"/>
<path d="M113.863 155.754C114.795 155.754 115.55 154.998 115.55 154.066C115.55 153.134 114.795 152.378 113.863 152.378C112.93 152.378 112.175 153.134 112.175 154.066C112.175 154.998 112.93 155.754 113.863 155.754Z" fill="white"/>
<path d="M116.656 167.473C117.742 167.473 118.622 166.593 118.622 165.507C118.622 164.422 117.742 163.542 116.656 163.542C115.571 163.542 114.69 164.422 114.69 165.507C114.69 166.593 115.571 167.473 116.656 167.473Z" fill="white"/>
<path d="M125.346 160.904C126.326 160.904 127.121 160.11 127.121 159.129C127.121 158.149 126.326 157.355 125.346 157.355C124.366 157.355 123.571 158.149 123.571 159.129C123.571 160.11 124.366 160.904 125.346 160.904Z" fill="white"/>
<path d="M124.676 149.35C125.402 149.35 125.99 148.762 125.99 148.036C125.99 147.31 125.402 146.722 124.676 146.722C123.951 146.722 123.362 147.31 123.362 148.036C123.362 148.762 123.951 149.35 124.676 149.35Z" fill="white"/>
<path d="M135.872 155.924C136.737 155.924 137.438 155.223 137.438 154.358C137.438 153.494 136.737 152.792 135.872 152.792C135.007 152.792 134.306 153.494 134.306 154.358C134.306 155.223 135.007 155.924 135.872 155.924Z" fill="white"/>
<path d="M136.399 141.337C137.029 141.337 137.539 140.826 137.539 140.197C137.539 139.567 137.029 139.057 136.399 139.057C135.77 139.057 135.259 139.567 135.259 140.197C135.259 140.826 135.77 141.337 136.399 141.337Z" fill="white"/>
<path d="M124.052 135.417C124.854 135.417 125.505 134.767 125.505 133.964C125.505 133.162 124.854 132.511 124.052 132.511C123.249 132.511 122.599 133.162 122.599 133.964C122.599 134.767 123.249 135.417 124.052 135.417Z" fill="white"/>
<path d="M123.589 122.763C124.459 122.763 125.164 122.058 125.164 121.189C125.164 120.319 124.459 119.614 123.589 119.614C122.72 119.614 122.015 120.319 122.015 121.189C122.015 122.058 122.72 122.763 123.589 122.763Z" fill="white"/>
<path d="M134.833 127.789C135.626 127.789 136.269 127.146 136.269 126.353C136.269 125.56 135.626 124.918 134.833 124.918C134.04 124.918 133.397 125.56 133.397 126.353C133.397 127.146 134.04 127.789 134.833 127.789Z" fill="white"/>
<path d="M133.5 115.563C134.394 115.563 135.118 114.839 135.118 113.945C135.118 113.052 134.394 112.327 133.5 112.327C132.606 112.327 131.882 113.052 131.882 113.945C131.882 114.839 132.606 115.563 133.5 115.563Z" fill="white"/>
<path d="M136.865 101.277C137.702 101.277 138.379 100.599 138.379 99.7634C138.379 98.9273 137.702 98.2495 136.865 98.2495C136.029 98.2495 135.352 98.9273 135.352 99.7634C135.352 100.599 136.029 101.277 136.865 101.277Z" fill="white"/>
<path d="M145.378 108.295C146.593 108.295 147.578 107.309 147.578 106.094C147.578 104.879 146.593 103.893 145.378 103.893C144.162 103.893 143.177 104.879 143.177 106.094C143.177 107.309 144.162 108.295 145.378 108.295Z" fill="white"/>
<path d="M148.912 119.947C150.166 119.947 151.182 118.931 151.182 117.677C151.182 116.423 150.166 115.407 148.912 115.407C147.659 115.407 146.642 116.423 146.642 117.677C146.642 118.931 147.659 119.947 148.912 119.947Z" fill="white"/>
<path d="M156.387 127.009C157.19 127.009 157.84 126.358 157.84 125.556C157.84 124.754 157.19 124.103 156.387 124.103C155.585 124.103 154.934 124.754 154.934 125.556C154.934 126.358 155.585 127.009 156.387 127.009Z" fill="white"/>
<path d="M148.649 132.022C149.485 132.022 150.162 131.344 150.162 130.508C150.162 129.672 149.485 128.994 148.649 128.994C147.812 128.994 147.135 129.672 147.135 130.508C147.135 131.344 147.812 132.022 148.649 132.022Z" fill="white"/>
<path d="M159.621 137.414C160.908 137.414 161.952 136.37 161.952 135.082C161.952 133.795 160.908 132.751 159.621 132.751C158.334 132.751 157.29 133.795 157.29 135.082C157.29 136.37 158.334 137.414 159.621 137.414Z" fill="white"/>
<path d="M150.79 149.933C151.256 149.933 151.634 149.555 151.634 149.089C151.634 148.622 151.256 148.244 150.79 148.244C150.323 148.244 149.945 148.622 149.945 149.089C149.945 149.555 150.323 149.933 150.79 149.933Z" fill="white"/>
<path d="M149.748 167.835C150.282 167.835 150.715 167.402 150.715 166.869C150.715 166.335 150.282 165.902 149.748 165.902C149.215 165.902 148.782 166.335 148.782 166.869C148.782 167.402 149.215 167.835 149.748 167.835Z" fill="white"/>
<path d="M142.005 179.981C142.62 179.981 143.119 179.482 143.119 178.867C143.119 178.252 142.62 177.753 142.005 177.753C141.389 177.753 140.891 178.252 140.891 178.867C140.891 179.482 141.389 179.981 142.005 179.981Z" fill="white"/>
<path d="M131.005 189.324C131.582 189.324 132.05 188.857 132.05 188.28C132.05 187.703 131.582 187.235 131.005 187.235C130.429 187.235 129.961 187.703 129.961 188.28C129.961 188.857 130.429 189.324 131.005 189.324Z" fill="white"/>
<path d="M135.031 167.027C135.877 167.027 136.562 166.341 136.562 165.495C136.562 164.65 135.877 163.964 135.031 163.964C134.186 163.964 133.5 164.65 133.5 165.495C133.5 166.341 134.186 167.027 135.031 167.027Z" fill="white"/>
<path d="M126.315 174.391C127.113 174.391 127.76 173.745 127.76 172.947C127.76 172.149 127.113 171.503 126.315 171.503C125.518 171.503 124.871 172.149 124.871 172.947C124.871 173.745 125.518 174.391 126.315 174.391Z" fill="white"/>
<path d="M117.068 181.923C118.086 181.923 118.912 181.097 118.912 180.079C118.912 179.06 118.086 178.234 117.068 178.234C116.049 178.234 115.224 179.06 115.224 180.079C115.224 181.097 116.049 181.923 117.068 181.923Z" fill="white"/>
<path d="M107.79 175.135C108.891 175.135 109.782 174.244 109.782 173.143C109.782 172.043 108.891 171.151 107.79 171.151C106.69 171.151 105.798 172.043 105.798 173.143C105.798 174.244 106.69 175.135 107.79 175.135Z" fill="white"/>
<path d="M105.902 185.829C106.709 185.829 107.364 185.175 107.364 184.367C107.364 183.56 106.709 182.906 105.902 182.906C105.095 182.906 104.44 183.56 104.44 184.367C104.44 185.175 105.095 185.829 105.902 185.829Z" fill="white"/>
<path d="M92.981 186.57C93.7018 186.57 94.2863 185.986 94.2863 185.265C94.2863 184.544 93.7018 183.96 92.981 183.96C92.2601 183.96 91.6758 184.544 91.6758 185.265C91.6758 185.986 92.2601 186.57 92.981 186.57Z" fill="white"/>
<path d="M90.6947 198.727C91.5212 198.727 92.1912 198.057 92.1912 197.231C92.1912 196.404 91.5212 195.734 90.6947 195.734C89.8682 195.734 89.1982 196.404 89.1982 197.231C89.1982 198.057 89.8682 198.727 90.6947 198.727Z" fill="white"/>
<path d="M106.352 200.732C107.591 200.732 108.596 199.727 108.596 198.488C108.596 197.248 107.591 196.244 106.352 196.244C105.112 196.244 104.107 197.248 104.107 198.488C104.107 199.727 105.112 200.732 106.352 200.732Z" fill="white"/>
<path d="M117.72 194.691C118.364 194.691 118.886 194.169 118.886 193.525C118.886 192.881 118.364 192.359 117.72 192.359C117.076 192.359 116.554 192.881 116.554 193.525C116.554 194.169 117.076 194.691 117.72 194.691Z" fill="white"/>
<path d="M102.701 209.296C103.657 209.296 104.432 208.521 104.432 207.564C104.432 206.608 103.657 205.833 102.701 205.833C101.745 205.833 100.97 206.608 100.97 207.564C100.97 208.521 101.745 209.296 102.701 209.296Z" fill="white"/>
<path d="M91.3542 212.828C92.4832 212.828 93.3983 211.913 93.3983 210.784C93.3983 209.655 92.4832 208.74 91.3542 208.74C90.2253 208.74 89.3101 209.655 89.3101 210.784C89.3101 211.913 90.2253 212.828 91.3542 212.828Z" fill="white"/>
<path d="M82.4534 207.031C83.2894 207.031 83.9672 206.353 83.9672 205.517C83.9672 204.681 83.2894 204.003 82.4534 204.003C81.6173 204.003 80.9395 204.681 80.9395 205.517C80.9395 206.353 81.6173 207.031 82.4534 207.031Z" fill="white"/>
<path d="M79.5403 218.57C80.5732 218.57 81.4105 217.733 81.4105 216.7C81.4105 215.667 80.5732 214.829 79.5403 214.829C78.5074 214.829 77.6699 215.667 77.6699 216.7C77.6699 217.733 78.5074 218.57 79.5403 218.57Z" fill="white"/>
<path d="M76.8829 230.301C77.9687 230.301 78.8489 229.421 78.8489 228.335C78.8489 227.249 77.9687 226.369 76.8829 226.369C75.7972 226.369 74.917 227.249 74.917 228.335C74.917 229.421 75.7972 230.301 76.8829 230.301Z" fill="white"/>
<path d="M82.4252 239.524C83.1028 239.524 83.6521 238.974 83.6521 238.297C83.6521 237.619 83.1028 237.07 82.4252 237.07C81.7475 237.07 81.1982 237.619 81.1982 238.297C81.1982 238.974 81.7475 239.524 82.4252 239.524Z" fill="white"/>
<path d="M88.5459 226.585C89.4156 226.585 90.1206 225.88 90.1206 225.01C90.1206 224.141 89.4156 223.436 88.5459 223.436C87.6762 223.436 86.9712 224.141 86.9712 225.01C86.9712 225.88 87.6762 226.585 88.5459 226.585Z" fill="white"/>
<path d="M99.2844 231.893C100.048 231.893 100.668 231.274 100.668 230.51C100.668 229.745 100.048 229.126 99.2844 229.126C98.5204 229.126 97.9009 229.745 97.9009 230.51C97.9009 231.274 98.5204 231.893 99.2844 231.893Z" fill="white"/>
<path d="M98.8488 220.491C99.9297 220.491 100.806 219.614 100.806 218.534C100.806 217.453 99.9297 216.576 98.8488 216.576C97.7678 216.576 96.8916 217.453 96.8916 218.534C96.8916 219.614 97.7678 220.491 98.8488 220.491Z" fill="white"/>
<path d="M109.179 220.119C110.351 220.119 111.302 219.169 111.302 217.997C111.302 216.824 110.351 215.874 109.179 215.874C108.007 215.874 107.057 216.824 107.057 217.997C107.057 219.169 108.007 220.119 109.179 220.119Z" fill="white"/>
<path d="M114.74 211.196C115.696 211.196 116.471 210.421 116.471 209.465C116.471 208.509 115.696 207.734 114.74 207.734C113.784 207.734 113.009 208.509 113.009 209.465C113.009 210.421 113.784 211.196 114.74 211.196Z" fill="white"/>
<path d="M123.491 205.773C124.414 205.773 125.161 205.025 125.161 204.103C125.161 203.18 124.414 202.433 123.491 202.433C122.569 202.433 121.821 203.18 121.821 204.103C121.821 205.025 122.569 205.773 123.491 205.773Z" fill="white"/>
<path d="M130.308 214.903C131.591 214.903 132.63 213.863 132.63 212.58C132.63 211.298 131.591 210.258 130.308 210.258C129.026 210.258 127.986 211.298 127.986 212.58C127.986 213.863 129.026 214.903 130.308 214.903Z" fill="white"/>
<path d="M134.13 202.469C134.918 202.469 135.557 201.83 135.557 201.042C135.557 200.254 134.918 199.615 134.13 199.615C133.342 199.615 132.703 200.254 132.703 201.042C132.703 201.83 133.342 202.469 134.13 202.469Z" fill="white"/>
<path d="M146.036 195.058C146.752 195.058 147.332 194.478 147.332 193.761C147.332 193.045 146.752 192.465 146.036 192.465C145.32 192.465 144.739 193.045 144.739 193.761C144.739 194.478 145.32 195.058 146.036 195.058Z" fill="white"/>
<path d="M157.188 185.642C157.784 185.642 158.267 185.159 158.267 184.563C158.267 183.967 157.784 183.484 157.188 183.484C156.592 183.484 156.108 183.967 156.108 184.563C156.108 185.159 156.592 185.642 157.188 185.642Z" fill="white"/>
<path d="M168.475 179.165C169.229 179.165 169.841 178.554 169.841 177.799C169.841 177.045 169.229 176.433 168.475 176.433C167.721 176.433 167.109 177.045 167.109 177.799C167.109 178.554 167.721 179.165 168.475 179.165Z" fill="white"/>
<path d="M179.725 168.204C180.379 168.204 180.909 167.674 180.909 167.02C180.909 166.366 180.379 165.837 179.725 165.837C179.072 165.837 178.542 166.366 178.542 167.02C178.542 167.674 179.072 168.204 179.725 168.204Z" fill="white"/>
<path d="M184.233 154.631C185.021 154.631 185.66 153.992 185.66 153.204C185.66 152.416 185.021 151.777 184.233 151.777C183.445 151.777 182.806 152.416 182.806 153.204C182.806 153.992 183.445 154.631 184.233 154.631Z" fill="white"/>
<path d="M165.759 163.727C166.561 163.727 167.212 163.077 167.212 162.274C167.212 161.472 166.561 160.821 165.759 160.821C164.956 160.821 164.306 161.472 164.306 162.274C164.306 163.077 164.956 163.727 165.759 163.727Z" fill="white"/>
<path d="M168.715 155.235C170.147 155.235 171.307 154.075 171.307 152.643C171.307 151.212 170.147 150.051 168.715 150.051C167.284 150.051 166.124 151.212 166.124 152.643C166.124 154.075 167.284 155.235 168.715 155.235Z" fill="white"/>
<path d="M165.547 145.544C166.882 145.544 167.965 144.461 167.965 143.126C167.965 141.79 166.882 140.708 165.547 140.708C164.211 140.708 163.129 141.79 163.129 143.126C163.129 144.461 164.211 145.544 165.547 145.544Z" fill="white"/>
<path d="M175.795 147.707C176.852 147.707 177.708 146.85 177.708 145.793C177.708 144.736 176.852 143.879 175.795 143.879C174.738 143.879 173.881 144.736 173.881 145.793C173.881 146.85 174.738 147.707 175.795 147.707Z" fill="white"/>
<path d="M184.494 142.384C185.537 142.384 186.382 141.539 186.382 140.496C186.382 139.454 185.537 138.609 184.494 138.609C183.452 138.609 182.606 139.454 182.606 140.496C182.606 141.539 183.452 142.384 184.494 142.384Z" fill="white"/>
<path d="M191.627 130.627C192.444 130.627 193.107 129.965 193.107 129.148C193.107 128.332 192.444 127.669 191.627 127.669C190.811 127.669 190.148 128.332 190.148 129.148C190.148 129.965 190.811 130.627 191.627 130.627Z" fill="white"/>
<path d="M174.431 134.398C175.094 134.398 175.632 133.86 175.632 133.197C175.632 132.534 175.094 131.996 174.431 131.996C173.768 131.996 173.23 132.534 173.23 133.197C173.23 133.86 173.768 134.398 174.431 134.398Z" fill="white"/>
<path d="M168.386 120.008C168.929 120.008 169.369 119.567 169.369 119.024C169.369 118.481 168.929 118.041 168.386 118.041C167.843 118.041 167.402 118.481 167.402 119.024C167.402 119.567 167.843 120.008 168.386 120.008Z" fill="white"/>
<path d="M182.236 122.788C182.846 122.788 183.341 122.293 183.341 121.682C183.341 121.072 182.846 120.577 182.236 120.577C181.625 120.577 181.13 121.072 181.13 121.682C181.13 122.293 181.625 122.788 182.236 122.788Z" fill="white"/>
<path d="M180.662 108.376C181.325 108.376 181.863 107.839 181.863 107.175C181.863 106.512 181.325 105.974 180.662 105.974C179.999 105.974 179.461 106.512 179.461 107.175C179.461 107.839 179.999 108.376 180.662 108.376Z" fill="white"/>
<path d="M193.297 115.172C193.989 115.172 194.55 114.611 194.55 113.919C194.55 113.227 193.989 112.666 193.297 112.666C192.605 112.666 192.044 113.227 192.044 113.919C192.044 114.611 192.605 115.172 193.297 115.172Z" fill="white"/>
<path d="M202.013 122.356C202.859 122.356 203.544 121.67 203.544 120.824C203.544 119.979 202.859 119.293 202.013 119.293C201.168 119.293 200.482 119.979 200.482 120.824C200.482 121.67 201.168 122.356 202.013 122.356Z" fill="white"/>
<path d="M212.592 114.454C213.365 114.454 213.993 113.826 213.993 113.053C213.993 112.279 213.365 111.652 212.592 111.652C211.818 111.652 211.191 112.279 211.191 113.053C211.191 113.826 211.818 114.454 212.592 114.454Z" fill="white"/>
<path d="M235.701 111.324C236.763 111.324 237.624 110.463 237.624 109.402C237.624 108.34 236.763 107.479 235.701 107.479C234.639 107.479 233.779 108.34 233.779 109.402C233.779 110.463 234.639 111.324 235.701 111.324Z" fill="white"/>
<path d="M250.988 112.953C252.045 112.953 252.902 112.096 252.902 111.039C252.902 109.982 252.045 109.125 250.988 109.125C249.931 109.125 249.074 109.982 249.074 111.039C249.074 112.096 249.931 112.953 250.988 112.953Z" fill="white"/>
<path d="M222.38 108.256C223.437 108.256 224.293 107.399 224.293 106.342C224.293 105.285 223.437 104.428 222.38 104.428C221.323 104.428 220.466 105.285 220.466 106.342C220.466 107.399 221.323 108.256 222.38 108.256Z" fill="white"/>
<path d="M212.257 101.086C213.362 101.086 214.257 100.19 214.257 99.0849C214.257 97.98 213.362 97.0842 212.257 97.0842C211.152 97.0842 210.256 97.98 210.256 99.0849C210.256 100.19 211.152 101.086 212.257 101.086Z" fill="white"/>
<path d="M202.669 105.077C203.85 105.077 204.808 104.119 204.808 102.937C204.808 101.755 203.85 100.797 202.669 100.797C201.487 100.797 200.529 101.755 200.529 102.937C200.529 104.119 201.487 105.077 202.669 105.077Z" fill="white"/>
<path d="M197.422 95.3507C198.57 95.3507 199.501 94.4199 199.501 93.2718C199.501 92.1236 198.57 91.1929 197.422 91.1929C196.274 91.1929 195.343 92.1236 195.343 93.2718C195.343 94.4199 196.274 95.3507 197.422 95.3507Z" fill="white"/>
<path d="M205.804 87.7644C206.52 87.7644 207.101 87.1839 207.101 86.4679C207.101 85.7519 206.52 85.1714 205.804 85.1714C205.088 85.1714 204.508 85.7519 204.508 86.4679C204.508 87.1839 205.088 87.7644 205.804 87.7644Z" fill="white"/>
<path d="M191.189 81.2655C191.848 81.2655 192.381 80.7317 192.381 80.0733C192.381 79.4149 191.848 78.8811 191.189 78.8811C190.531 78.8811 189.997 79.4149 189.997 80.0733C189.997 80.7317 190.531 81.2655 191.189 81.2655Z" fill="white"/>
<path d="M192.515 103.09C193.908 103.09 195.037 101.961 195.037 100.568C195.037 99.1748 193.908 98.0455 192.515 98.0455C191.122 98.0455 189.993 99.1748 189.993 100.568C189.993 101.961 191.122 103.09 192.515 103.09Z" fill="white"/>
<path d="M184.185 96.7624C185.626 96.7624 186.795 95.5942 186.795 94.1532C186.795 92.7121 185.626 91.5439 184.185 91.5439C182.744 91.5439 181.576 92.7121 181.576 94.1532C181.576 95.5942 182.744 96.7624 184.185 96.7624Z" fill="white"/>
<path d="M172.825 96.8627C174.161 96.8627 175.243 95.7802 175.243 94.4448C175.243 93.1094 174.161 92.0268 172.825 92.0268C171.49 92.0268 170.407 93.1094 170.407 94.4448C170.407 95.7802 171.49 96.8627 172.825 96.8627Z" fill="white"/>
<path d="M162.399 101.066C163.701 101.066 164.756 100.01 164.756 98.7086C164.756 97.4068 163.701 96.3514 162.399 96.3514C161.097 96.3514 160.042 97.4068 160.042 98.7086C160.042 100.01 161.097 101.066 162.399 101.066Z" fill="white"/>
<path d="M154.737 108.731C156.173 108.731 157.337 107.567 157.337 106.13C157.337 104.694 156.173 103.53 154.737 103.53C153.301 103.53 152.136 104.694 152.136 106.13C152.136 107.567 153.301 108.731 154.737 108.731Z" fill="white"/>
<path d="M160.879 88.4811C161.576 88.4811 162.141 87.9162 162.141 87.2194C162.141 86.5226 161.576 85.9576 160.879 85.9576C160.183 85.9576 159.618 86.5226 159.618 87.2194C159.618 87.9162 160.183 88.4811 160.879 88.4811Z" fill="white"/>
<path d="M149.11 94.4691C149.941 94.4691 150.615 93.7952 150.615 92.964C150.615 92.1327 149.941 91.4588 149.11 91.4588C148.278 91.4588 147.604 92.1327 147.604 92.964C147.604 93.7952 148.278 94.4691 149.11 94.4691Z" fill="white"/>
<path d="M141.46 84.2573C142.262 84.2573 142.913 83.6067 142.913 82.8043C142.913 82.0018 142.262 81.3513 141.46 81.3513C140.657 81.3513 140.007 82.0018 140.007 82.8043C140.007 83.6067 140.657 84.2573 141.46 84.2573Z" fill="white"/>
<path d="M151.376 77.4054C152.15 77.4054 152.777 76.7782 152.777 76.0045C152.777 75.2309 152.15 74.6037 151.376 74.6037C150.603 74.6037 149.976 75.2309 149.976 76.0045C149.976 76.7782 150.603 77.4054 151.376 77.4054Z" fill="white"/>
<path d="M140.418 70.0818C141.35 70.0818 142.105 69.3262 142.105 68.3941C142.105 67.462 141.35 66.7064 140.418 66.7064C139.486 66.7064 138.73 67.462 138.73 68.3941C138.73 69.3262 139.486 70.0818 140.418 70.0818Z" fill="white"/>
<path d="M141.279 53.9639C142.028 53.9639 142.636 53.3562 142.636 52.6066C142.636 51.8569 142.028 51.2492 141.279 51.2492C140.529 51.2492 139.921 51.8569 139.921 52.6066C139.921 53.3562 140.529 53.9639 141.279 53.9639Z" fill="white"/>
<path d="M144.222 38.9827C145.072 38.9827 145.761 38.2933 145.761 37.4428C145.761 36.5923 145.072 35.9028 144.222 35.9028C143.371 35.9028 142.682 36.5923 142.682 37.4428C142.682 38.2933 143.371 38.9827 144.222 38.9827Z" fill="white"/>
<path d="M145.807 21.8357C146.331 21.8357 146.756 21.4109 146.756 20.8869C146.756 20.3629 146.331 19.9381 145.807 19.9381C145.283 19.9381 144.858 20.3629 144.858 20.8869C144.858 21.4109 145.283 21.8357 145.807 21.8357Z" fill="white"/>
<path d="M152.382 48.451C153.007 48.451 153.513 47.9445 153.513 47.3197C153.513 46.6949 153.007 46.1884 152.382 46.1884C151.757 46.1884 151.25 46.6949 151.25 47.3197C151.25 47.9445 151.757 48.451 152.382 48.451Z" fill="white"/>
<path d="M151.196 63.4482C152.095 63.4482 152.823 62.7198 152.823 61.8213C152.823 60.9228 152.095 60.1945 151.196 60.1945C150.298 60.1945 149.569 60.9228 149.569 61.8213C149.569 62.7198 150.298 63.4482 151.196 63.4482Z" fill="white"/>
<path d="M175.583 81.7957C176.275 81.7957 176.836 81.2346 176.836 80.5426C176.836 79.8506 176.275 79.2896 175.583 79.2896C174.891 79.2896 174.33 79.8506 174.33 80.5426C174.33 81.2346 174.891 81.7957 175.583 81.7957Z" fill="white"/>
</svg>
