<!--?xml version="1.0" standalone="no"?-->
              <svg id="sw-js-blob-svg" viewBox="0 0 100 100" xmlns="http://www.w3.org/2000/svg" version="1.1">
                    <defs> 
                        <linearGradient id="sw-gradient" x1="0" x2="1" y1="1" y2="0">
                            <stop id="stop1" stop-color="rgba(46.031, 91.824, 180.933, 1)" offset="0%"></stop>
                            <stop id="stop2" stop-color="rgba(245, 245, 247, 1)" offset="100%"></stop>
                        </linearGradient>
                    </defs>
                <path fill="url(#sw-gradient)" d="M21.7,-26.9C28.2,-20.5,33.6,-13.7,36.6,-5.2C39.5,3.2,40,13.3,35.6,20.2C31.2,27.1,21.9,30.9,13.1,32.6C4.3,34.3,-4,34,-12.7,32.1C-21.5,30.2,-30.6,26.6,-34.1,20C-37.5,13.4,-35.2,3.8,-32.8,-5.1C-30.4,-14,-27.9,-22.1,-22.4,-28.8C-17,-35.4,-8.5,-40.6,-0.4,-40.1C7.6,-39.6,15.2,-33.4,21.7,-26.9Z" width="100%" height="100%" transform="translate(50 50)" stroke-width="0" style="transition: all 0.3s ease 0s;" stroke="url(#sw-gradient)"></path>
              </svg>